<svg xmlns="http://www.w3.org/2000/svg" xmlns:xlink="http://www.w3.org/1999/xlink" viewBox="0 0 1000 1000" width="1000" height="1000" preserveAspectRatio="xMidYMid meet" style="width: 100%; height: 100%; transform: translate3d(0px, 0px, 0px); content-visibility: visible;"><defs><clipPath id="__lottie_element_1148"><rect width="1000" height="1000" x="0" y="0"/></clipPath><clipPath id="__lottie_element_1153"><path d="M0,0 L1000,0 L1000,1000 L0,1000z"/></clipPath><clipPath id="__lottie_element_1157"><path d="M0,0 L1000,0 L1000,1000 L0,1000z"/></clipPath><clipPath id="__lottie_element_1161"><path d="M0,0 L1000,0 L1000,1000 L0,1000z"/></clipPath></defs><g clip-path="url(#__lottie_element_1148)"><g transform="matrix(1.1299999952316284,0,0,1.1299999952316284,307.92108154296875,253.8866729736328)" opacity="1" style="display: block;"><g opacity="1" transform="matrix(1,0,0,1,170.10699462890625,107.96399688720703)"><path fill="rgb(132,61,255)" fill-opacity="1" d=" M116.51599884033203,1.0290000438690186 C113.82499694824219,1.0290000438690186 111.17900085449219,1.2309999465942383 108.58100128173828,1.61899995803833 C108.68699645996094,-0.2879999876022339 108.74500274658203,-2.2109999656677246 108.74500274658203,-4.151000022888184 C108.74500274658203,-61.3489990234375 62.375999450683594,-107.71399688720703 5.183000087738037,-107.71399688720703 C-50.39099884033203,-107.71399688720703 -95.72799682617188,-63.946998596191406 -98.27200317382812,-9.010000228881836 C-102.31300354003906,-9.887999534606934 -106.51799774169922,-10.359999656677246 -110.81999969482422,-10.359999656677246 C-143.42599487304688,-10.359999656677246 -169.85699462890625,16.062000274658203 -169.85699462890625,48.676998138427734 C-169.85699462890625,81.2750015258789 -143.42599487304688,107.71399688720703 -110.81999969482422,107.71399688720703 C-110.81999969482422,107.71399688720703 116.51599884033203,107.71399688720703 116.51599884033203,107.71399688720703 C145.9759979248047,107.71399688720703 169.85699462890625,83.822998046875 169.85699462890625,54.380001068115234 C169.85699462890625,24.90399932861328 145.9759979248047,1.0290000438690186 116.51599884033203,1.0290000438690186z"/></g></g><g clip-path="url(#__lottie_element_1153)" transform="matrix(-1,0,0,-1,1000,1000)" opacity="1" style="display: block;"><g transform="matrix(1,0,0,1,408.3699951171875,529.9990234375)" opacity="0.001600399934797565" style="display: none;"><g opacity="1" transform="matrix(1,0,0,1,91.84200286865234,101.47599792480469)"><path fill="rgb(73,56,101)" fill-opacity="1" d=" M36.78300094604492,4.656000137329102 C36.78300094604492,4.656000137329102 35.32699966430664,-101.2249984741211 35.32699966430664,-101.2249984741211 C35.32699966430664,-101.2249984741211 -38.24300003051758,-100.21399688720703 -38.24300003051758,-100.21399688720703 C-38.24300003051758,-100.21399688720703 -36.7869987487793,5.669000148773193 -36.7869987487793,5.669000148773193 C-36.7869987487793,5.669000148773193 -91.59200286865234,6.4039998054504395 -91.59200286865234,6.4039998054504395 C-91.59200286865234,6.4039998054504395 -45.138999938964844,53.82400131225586 -45.138999938964844,53.82400131225586 C-45.138999938964844,53.82400131225586 1.3209999799728394,101.2249984741211 1.3209999799728394,101.2249984741211 C1.3209999799728394,101.2249984741211 46.46200180053711,52.5629997253418 46.46200180053711,52.5629997253418 C46.46200180053711,52.5629997253418 91.59200286865234,3.9019999504089355 91.59200286865234,3.9019999504089355 C91.59200286865234,3.9019999504089355 36.78300094604492,4.656000137329102 36.78300094604492,4.656000137329102z"/></g></g><g transform="matrix(1,0,0,1,498.1139831542969,529.9608764648438)" opacity="0.001600399934797565" style="display: none;"><g opacity="1" transform="matrix(1,0,0,1,46.970001220703125,101.47599792480469)"><path fill="rgb(124,58,236)" fill-opacity="1" d=" M-8.08899974822998,4.656000137329102 C-8.08899974822998,4.656000137329102 -9.545000076293945,-101.2249984741211 -9.545000076293945,-101.2249984741211 C-9.545000076293945,-101.2249984741211 -46.720001220703125,-100.71399688720703 -46.720001220703125,-100.71399688720703 C-46.720001220703125,-100.71399688720703 -43.948001861572266,100.82499694824219 -43.948001861572266,100.82499694824219 C-43.948001861572266,100.82499694824219 -43.55099868774414,101.2249984741211 -43.55099868774414,101.2249984741211 C-43.55099868774414,101.2249984741211 1.590000033378601,52.5629997253418 1.590000033378601,52.5629997253418 C1.590000033378601,52.5629997253418 46.720001220703125,3.9019999504089355 46.720001220703125,3.9019999504089355 C46.720001220703125,3.9019999504089355 -8.08899974822998,4.656000137329102 -8.08899974822998,4.656000137329102z"/></g></g></g><g clip-path="url(#__lottie_element_1157)" transform="matrix(-1,0,0,-1,1000,1000)" opacity="1" style="display: block;"><g transform="matrix(1,0,0,1,498.1139831542969,529.515380859375)" opacity="0.009198397527246556" style="display: none;"><g opacity="1" transform="matrix(1,0,0,1,46.970001220703125,101.47599792480469)"><path fill="rgb(73,56,101)" fill-opacity="1" d=" M-8.08899974822998,4.656000137329102 C-8.08899974822998,4.656000137329102 -9.545000076293945,-101.2249984741211 -9.545000076293945,-101.2249984741211 C-9.545000076293945,-101.2249984741211 -46.720001220703125,-100.71399688720703 -46.720001220703125,-100.71399688720703 C-46.720001220703125,-100.71399688720703 -43.948001861572266,100.82499694824219 -43.948001861572266,100.82499694824219 C-43.948001861572266,100.82499694824219 -43.55099868774414,101.2249984741211 -43.55099868774414,101.2249984741211 C-43.55099868774414,101.2249984741211 1.590000033378601,52.5629997253418 1.590000033378601,52.5629997253418 C1.590000033378601,52.5629997253418 46.720001220703125,3.9019999504089355 46.720001220703125,3.9019999504089355 C46.720001220703125,3.9019999504089355 -8.08899974822998,4.656000137329102 -8.08899974822998,4.656000137329102z"/></g></g><g transform="matrix(1,0,0,1,408.3699951171875,529.5533447265625)" opacity="0.009198397527246556" style="display: none;"><g opacity="1" transform="matrix(1,0,0,1,91.84200286865234,101.47599792480469)"><path fill="rgb(109,40,229)" fill-opacity="1" d=" M36.78300094604492,4.656000137329102 C36.78300094604492,4.656000137329102 35.32699966430664,-101.2249984741211 35.32699966430664,-101.2249984741211 C35.32699966430664,-101.2249984741211 -38.24300003051758,-100.21399688720703 -38.24300003051758,-100.21399688720703 C-38.24300003051758,-100.21399688720703 -36.7869987487793,5.669000148773193 -36.7869987487793,5.669000148773193 C-36.7869987487793,5.669000148773193 -91.59200286865234,6.4039998054504395 -91.59200286865234,6.4039998054504395 C-91.59200286865234,6.4039998054504395 -45.138999938964844,53.82400131225586 -45.138999938964844,53.82400131225586 C-45.138999938964844,53.82400131225586 1.3209999799728394,101.2249984741211 1.3209999799728394,101.2249984741211 C1.3209999799728394,101.2249984741211 46.46200180053711,52.5629997253418 46.46200180053711,52.5629997253418 C46.46200180053711,52.5629997253418 91.59200286865234,3.9019999504089355 91.59200286865234,3.9019999504089355 C91.59200286865234,3.9019999504089355 36.78300094604492,4.656000137329102 36.78300094604492,4.656000137329102z"/></g></g></g><g clip-path="url(#__lottie_element_1161)" transform="matrix(-1,0,0,-1,1000,1000)" opacity="1" style="display: block;"><g transform="matrix(1,0,0,1,498.1139831542969,529.8905029296875)" opacity="0.0028008140399087725" style="display: none;"><g opacity="1" transform="matrix(1,0,0,1,46.970001220703125,101.47599792480469)"><path fill="rgb(73,56,101)" fill-opacity="1" d=" M-8.08899974822998,4.656000137329102 C-8.08899974822998,4.656000137329102 -9.545000076293945,-101.2249984741211 -9.545000076293945,-101.2249984741211 C-9.545000076293945,-101.2249984741211 -46.720001220703125,-100.71399688720703 -46.720001220703125,-100.71399688720703 C-46.720001220703125,-100.71399688720703 -43.948001861572266,100.82499694824219 -43.948001861572266,100.82499694824219 C-43.948001861572266,100.82499694824219 -43.55099868774414,101.2249984741211 -43.55099868774414,101.2249984741211 C-43.55099868774414,101.2249984741211 1.590000033378601,52.5629997253418 1.590000033378601,52.5629997253418 C1.590000033378601,52.5629997253418 46.720001220703125,3.9019999504089355 46.720001220703125,3.9019999504089355 C46.720001220703125,3.9019999504089355 -8.08899974822998,4.656000137329102 -8.08899974822998,4.656000137329102z"/></g></g><g transform="matrix(1,0,0,1,408.3699951171875,529.9285888671875)" opacity="0.0028008140399087725" style="display: none;"><g opacity="1" transform="matrix(1,0,0,1,91.84200286865234,101.47599792480469)"><path fill="rgb(109,40,229)" fill-opacity="1" d=" M36.78300094604492,4.656000137329102 C36.78300094604492,4.656000137329102 35.32699966430664,-101.2249984741211 35.32699966430664,-101.2249984741211 C35.32699966430664,-101.2249984741211 -38.24300003051758,-100.21399688720703 -38.24300003051758,-100.21399688720703 C-38.24300003051758,-100.21399688720703 -36.7869987487793,5.669000148773193 -36.7869987487793,5.669000148773193 C-36.7869987487793,5.669000148773193 -91.59200286865234,6.4039998054504395 -91.59200286865234,6.4039998054504395 C-91.59200286865234,6.4039998054504395 -45.138999938964844,53.82400131225586 -45.138999938964844,53.82400131225586 C-45.138999938964844,53.82400131225586 1.3209999799728394,101.2249984741211 1.3209999799728394,101.2249984741211 C1.3209999799728394,101.2249984741211 46.46200180053711,52.5629997253418 46.46200180053711,52.5629997253418 C46.46200180053711,52.5629997253418 91.59200286865234,3.9019999504089355 91.59200286865234,3.9019999504089355 C91.59200286865234,3.9019999504089355 36.78300094604492,4.656000137329102 36.78300094604492,4.656000137329102z"/></g></g></g></g></svg>