<svg xmlns="http://www.w3.org/2000/svg" xmlns:xlink="http://www.w3.org/1999/xlink" viewBox="0 0 192 192" width="192" height="192" preserveAspectRatio="xMidYMid meet" style="width: 100%; height: 100%; transform: translate3d(0px, 0px, 0px); content-visibility: visible;"><defs><clipPath id="__lottie_element_1476"><rect width="192" height="192" x="0" y="0"/></clipPath></defs><g clip-path="url(#__lottie_element_1476)"><g transform="matrix(4.857723236083984,0,0,4.857723236083984,38.77532196044922,27.99187469482422)" opacity="1" style="display: block;"><g opacity="1" transform="matrix(1,0,0,1,12,14)"><path stroke-linecap="round" stroke-linejoin="round" fill-opacity="0" stroke="rgb(124,58,236)" stroke-opacity="1" stroke-width="2" d=" M7,-4.27400016784668 C7,-4.27400016784668 7,-7.572999954223633 7,-7.572999954223633 C6.400000095367432,-7.447999954223633 5.78000020980835,-7.379000186920166 5.144000053405762,-7.379000186920166 C3.2290000915527344,-7.379000186920166 1.4589999914169312,-7.980999946594238 0,-9 C-1.4579999446868896,-7.980999946594238 -3.2290000915527344,-7.379000186920166 -5.14300012588501,-7.379000186920166 C-5.7789998054504395,-7.379000186920166 -6.400000095367432,-7.447999954223633 -7,-7.572999954223633 C-7,-7.572999954223633 -7,-4.27400016784668 -7,-4.27400016784668 C-7,-4.27400016784668 -7,-0.11599999666213989 -7,-0.11599999666213989 C-7,2.4670000076293945 -5.751999855041504,4.892000198364258 -3.6489999294281006,6.39300012588501 C-3.6489999294281006,6.39300012588501 0,9 0,9 C0,9 3.6500000953674316,6.39300012588501 3.6500000953674316,6.39300012588501 C5.752999782562256,4.892000198364258 7,2.4670000076293945 7,-0.11599999666213989 C7,-0.11599999666213989 7,-4.27400016784668 7,-4.27400016784668z"/></g></g><g transform="matrix(5.285719871520996,0,0,5.285719871520996,57.17510223388672,60.58567810058594)" opacity="1" style="display: block;"><g opacity="1" transform="matrix(1,0,0,1,7.5,6.699999809265137)"><path stroke-linecap="round" stroke-linejoin="round" fill-opacity="0" stroke="rgb(124,58,236)" stroke-opacity="1" stroke-width="2" d=" M-1.6540000438690186,0.9459999799728394 C-2.069000005722046,0.531000018119812 -2.5,0.10000000149011612 -2.5,0.10000000149011612"/></g></g></g></svg>